<svg id="Artwork_-_Edit_Me" data-name="Artwork - Edit Me" xmlns="http://www.w3.org/2000/svg" viewBox="0 0 1024 1024"><defs><style>.cls-1{fill:#fff;}.cls-2{fill:red;}.cls-3{fill:#0b0;}.cls-4{fill:#00d;}</style></defs><rect class="cls-1" width="1024" height="1024"/><g id="Layer_9" data-name="Layer 9"><path class="cls-2" d="M228.23,680.21c-95.82,0-149.13-58.72-149.13-148.67V498.43c0-91.13,53.31-149.85,149.13-149.85,96.3,0,148.91,59.42,148.91,149.85v33.11C377.14,621.49,324.29,680.21,228.23,680.21Zm0-257.64c-33.11,0-54.25,26.07-54.25,74.68V532c0,48.85,21.14,74,54.25,74s54-25.13,54-74V497.25C282.25,448.64,261.35,422.57,228.23,422.57Z" transform="translate(0 0)"/><path class="cls-3" d="M680.34,470c0,62.24-38.51,114.38-117.66,114.38H513.12v90.18H420.59V354H563.85C643,354,680.34,408.94,680.34,470ZM539.43,423H512.65V517h24.43c30.06,0,49.55-15.74,49.55-47C586.63,439.48,568.08,423,539.43,423Z" transform="translate(0 0)"/><path class="cls-4" d="M930,674.57H716.51V354h92.77V598.24H930Z" transform="translate(0 0)"/></g></svg>